<?xml version="1.0" encoding="UTF-8"?>
<!DOCTYPE svg PUBLIC "-//W3C//DTD SVG 1.1//EN" "http://www.w3.org/Graphics/SVG/1.1/DTD/svg11.dtd">
<!-- Creator: CorelDRAW -->
<svg xmlns="http://www.w3.org/2000/svg" xml:space="preserve" width="105mm" height="148mm" version="1.1" style="shape-rendering:geometricPrecision; text-rendering:geometricPrecision; image-rendering:optimizeQuality; fill-rule:evenodd; clip-rule:evenodd"
viewBox="0 0 10500 14800"
 xmlns:xlink="http://www.w3.org/1999/xlink"
 xmlns:xodm="http://www.corel.com/coreldraw/odm/2003"
 data-name="Layer 1">
 <defs>
  <style type="text/css">
   <![CDATA[
    .fil3 {fill:#2F2E41}
    .fil0 {fill:#3F3D56}
    .fil4 {fill:#465DDF}
    .fil5 {fill:#CCCCCC}
    .fil2 {fill:#FFB8B8}
    .fil1 {fill:white}
   ]]>
  </style>
 </defs>
 <g id="Layer_x0020_1">
  <metadata id="CorelCorpID_0Corel-Layer"/>
  <path class="fil0" d="M7484.57 6908.31c23.87,10.26 39.34,33.76 39.34,59.74 0,8.84 -1.81,17.61 -5.31,25.73l-88.35 205.21 10.01 5.12 -60.24 139.29 -9.64 -5.34 -316.51 735.18c-17.8,41.37 -58.56,68.2 -103.62,68.2 -10.43,0 -20.81,-1.46 -30.84,-4.3l-492.13 -139.82c-36.7,-10.43 -62.06,-43.98 -62.06,-82.15 0,-12.84 2.9,-25.53 8.48,-37.1l496.04 -1028.64c17.6,-36.51 54.61,-59.76 95.17,-59.76 8.02,0 16.04,0.92 23.84,2.72l484.25 112.15 -0.01 0.02c3.98,0.87 7.86,2.13 11.59,3.73l-0.01 0.02z"/>
  <path class="fil1" d="M7074.96 6871.68l254.58 58.96c1.59,0.34 3.22,0.53 4.84,0.53 7.89,0 15.14,-4.35 18.86,-11.31l-0.01 0.02c4.22,-7.9 12.43,-12.83 21.37,-12.83 1.84,0 3.68,0.21 5.46,0.62l53.62 12.42c23.27,5.39 39.76,26.13 39.76,50.01 0,6.96 -1.42,13.87 -4.17,20.26l-458.09 1066.2c-9.23,21.51 -30.42,35.47 -53.84,35.47 -5.73,0 -11.45,-0.84 -16.93,-2.5l-488.67 -147.44c-19.1,-5.76 -32.18,-23.37 -32.18,-43.32 0,-6.7 1.49,-13.32 4.35,-19.37l484.17 -1022.06c12.09,-25.5 37.78,-41.76 66,-41.76 5.55,0 11.08,0.63 16.48,1.88l56.53 13.09c-0.29,1.82 -0.43,3.66 -0.43,5.5 0,17.01 11.74,31.78 28.31,35.62l-0.01 0.01z"/>
  <polygon class="fil2" points="5863.03,12464.66 6165.5,12464.63 6309.35,11297.92 5862.92,11297.95 "/>
  <path class="fil3" d="M6748.87 12745.45l-950.64 0.09 -0.04 -367.3 583.35 -0.05c0.01,0.01 0.01,0.01 0.01,0.01 202.81,-0.02 367.3,164.44 367.32,367.26 0,0 0,0 0,0l0 0 0 -0.01z"/>
  <polygon class="fil2" points="4232.61,12464.66 4535.11,12464.63 4678.94,11297.92 4232.5,11297.95 "/>
  <path class="fil3" d="M5118.47 12745.45l-950.64 0.09 -0.03 -367.3 583.35 -0.05c202.81,-0.01 367.3,164.45 367.32,367.27l0 0 0 -0.01z"/>
  <circle class="fil2" cx="5118.47" cy="3520.78" r="649.84"/>
  <path class="fil2" d="M7340.51 7758.83c-15.61,-124.02 -121.14,-217.07 -246.14,-217.07 -25.02,0 -49.92,3.82 -73.78,11.24l-363.17 -435.36 -318.39 156.17 521.51 607.61c37.07,96.18 129.59,159.64 232.7,159.64 137.74,0 249.44,-111.7 249.44,-249.44 0,-10.96 -0.73,-21.99 -2.16,-32.83l-0.01 0.04z"/>
  <path class="fil2" d="M4214.89 8199.14c15.61,-33.09 23.73,-69.29 23.73,-105.88 0,-112.04 -75.15,-210.24 -183.28,-239.5l-72.91 -562.24 -352.48 -39.02 114.12 792.55c-3.25,16.15 -4.89,32.63 -4.89,49.1 0,137.74 111.7,249.44 249.44,249.44 97.11,0 185.4,-56.4 226.27,-144.47l0 0.02z"/>
  <path class="fil4" d="M3721.61 7855.35c-58.97,-0.02 -109.08,-43.27 -117.75,-101.6l-173.5 -1168.37c-5.9,-40.61 -9.08,-82.03 -9.08,-123.14 0,-106.94 20.51,-212.95 60.18,-312.19l532.64 -1329.27c50.59,-126.2 173.01,-209.08 309.06,-209.08 102.63,0 199.62,47.39 262.66,128.36l0.01 0.01c45.55,58.39 70.38,130.4 70.38,204.48 0,46.86 -9.94,93.27 -29.09,135.99l-251.1 561.66c-219.42,491.4 -333.6,1025.33 -333.6,1563.94 0,148.81 9.36,298.55 26.21,445.96 0.36,4.7 0.64,9.35 0.64,13.99 0,52.29 -34.13,98.47 -84.11,113.8l-228.57 70.2c-11.33,3.46 -23.11,5.24 -34.97,5.24l-0.01 0.02z"/>
  <path class="fil3" d="M4960.25 4170.6c-4.81,0.07 -10.06,0.15 -14.97,0.15 -382.86,0 -693.34,-310.48 -693.34,-693.34 0,-382.85 310.48,-693.33 693.34,-693.33 48.67,0 97.34,5.16 144.92,15.32 142.91,-86.77 309.06,-145.16 475.58,-130.31 166.52,14.85 331.21,113.72 393.49,268.87 62.28,155.15 -4.63,359.67 -159.47,422.72 -99.27,40.42 -211.37,20.82 -317.3,4.52 -105.93,-16.3 -221.5,-26.94 -313.7,27.72 -92.2,54.66 -133.64,201.23 -51.07,269.57 62.64,53.94 98.78,132.64 98.78,215.37 0,33.2 -5.86,66.18 -17.2,97.37 -41.52,107.33 -154.78,193.55 -239.06,195.37z"/>
  <path class="fil3" d="M4144.57 12229.6c-0.01,-0.01 -0.04,-0.01 -0.05,-0.01 -65.75,0 -119.07,-53.32 -119.07,-119.07 0,-1.03 0.03,-2.12 0.04,-3.14l115.6 -4387.21 12.61 -0.28 1910.99 -41.66 329.94 4266.04c0.2,2.73 0.3,5.51 0.3,8.27 0,50.42 -31.7,95.43 -79.16,112.43l-3.62 0.74 -375.06 22.92c-12.24,4.12 -25.13,6.24 -38.07,6.24 -55.74,0 -104.05,-38.72 -116.19,-93.11l-611.4 -2735.67c-4.04,-18.14 -20.14,-31.04 -38.72,-31.04 -19.51,0 -36.13,14.19 -39.2,33.45l-451.68 2841.35c-9.03,55.41 -55.43,97.14 -111.51,100.21l-379.73 19.38c-2.02,0.11 -4.02,0.16 -6.02,0.16z"/>
  <path class="fil4" d="M4706.98 8083.32c-237.81,0 -445.48,-35.93 -560.15,-138.44 -73.69,-65.87 -105.57,-155.46 -94.72,-266.26 40.75,-416.53 -29.87,-1329.48 -96.28,-2022.01 -3.41,-37.98 -5.36,-76.43 -5.36,-114.73 0,-289.71 102.43,-570.56 288.96,-792.08 204.21,-244.17 499.28,-395.21 816.8,-417.38 218.77,-15.58 731.07,-51.91 890.31,355.95 239.22,612.68 122.22,893.64 9.08,1165.36 -96.13,230.84 -195.53,469.54 -73.69,917.8 66.83,247.39 149.4,492.67 244.24,730.58 65.98,169.19 99.1,254.11 68.52,309.57 -24.12,43.76 -84.29,62.81 -186.88,82.67 -33.51,6.5 -77.79,15.9 -130.52,27.12 -268.23,56.61 -763.37,161.85 -1170.31,161.85z"/>
  <path class="fil4" d="M6659.38 7699.33c-0.92,0 -1.83,0 -2.75,-0.03 -34.66,-0.78 -67.31,-16.68 -89.3,-43.51l-673.62 -820.84c-143.54,-175.25 -238.65,-385.96 -274.48,-609.66l-207.37 -1296.28c-2.74,-17.36 -4.16,-35 -4.16,-52.6 0,-183.85 149.09,-332.94 332.94,-332.94 168.52,0 310.5,125.97 330.58,293.27l82.46 687.52c75.71,634.33 322.91,1238.46 712.8,1744.58l47.12 61.15c16.13,20.72 24.85,46.29 24.85,72.58 0,29.41 -10.91,57.82 -30.59,79.66l-160.01 177.69c-22.54,25.07 -54.71,39.4 -88.43,39.4 0,0 -0.03,0 -0.03,0l-0.01 0.01z"/>
  <path class="fil5" d="M8499.94 12795.72l-6111.87 0c-14.6,-0.02 -26.45,-11.87 -26.45,-26.48 0,-14.61 11.85,-26.46 26.46,-26.46l6111.86 0.02c14.61,-0.02 26.46,11.83 26.46,26.44 0,14.61 -11.85,26.46 -26.46,26.46l0 0.02z"/>
 </g>
</svg>
