<?xml version="1.0" encoding="iso-8859-1"?>
<!-- Generator: Adobe Illustrator 19.0.0, SVG Export Plug-In . SVG Version: 6.00 Build 0)  -->
<svg version="1.1" id="Capa_1" xmlns="http://www.w3.org/2000/svg" xmlns:xlink="http://www.w3.org/1999/xlink" x="0px" y="0px"
	 viewBox="0 0 512 512" style="enable-background:new 0 0 512 512;" xml:space="preserve">
<polygon style="fill:#FFFFFF;" points="477.13,224.742 459.711,214.685 459.711,141.733 253.891,22.737 248.154,25.696 
	248.154,92.376 233.151,83.714 163.411,43.45 0,138.413 0,273.616 0,273.616 0,273.616 58.518,307.403 8.282,336.748 8.282,336.748 
	8.282,336.748 8.249,348.236 8.249,348.236 8.249,348.236 54.858,375.146 252.228,489.263 252.228,489.263 252.228,489.263 
	266.616,480.859 313.719,453.345 313.719,454.909 313.719,454.909 357.933,480.436 348.589,476.158 348.589,476.158 
	348.589,476.158 512,381.194 512,245.991 "/>
<polygon style="fill:#474747;" points="163.411,43.45 0,138.413 0,273.616 69.741,313.881 233.151,218.918 233.151,83.714 "/>
<g style="enable-background:new    ;">
	<polygon style="fill:#666666;" points="0,138.413 163.411,43.45 233.151,83.714 69.741,178.679 	"/>
	<polygon style="fill:#4D4D4D;" points="69.741,178.679 69.741,313.881 0,273.616 0,138.413 	"/>
</g>
<polygon style="fill:#E0E0E2;" points="208.065,220.047 8.282,336.748 8.249,348.236 252.228,489.263 452.011,372.563 
	452.044,361.075 "/>
<g style="enable-background:new    ;">
	<polygon style="fill:#C6C5CB;" points="252.26,477.774 452.044,361.075 452.011,372.563 252.228,489.263 	"/>
	<polygon style="fill:#D8D8DA;" points="252.26,477.774 252.228,489.263 8.249,348.236 8.282,336.748 	"/>
</g>
<polygon style="fill:#808080;" points="233.151,83.714 69.741,178.679 69.741,187.744 313.719,328.772 476.993,233.807 
	477.13,224.742 "/>
<g style="enable-background:new    ;">
	<g>
		<polygon style="fill:#57565C;" points="313.719,319.705 477.13,224.742 476.993,233.807 313.719,328.771 		"/>
		<polygon style="fill:#57565C;" points="313.719,319.705 477.13,224.742 476.993,233.807 313.719,328.771 		"/>
	</g>
	<polygon style="fill:#3E3D43;" points="205.956,123.061 248.154,98.725 453.973,217.721 411.774,241.889 	"/>
	<polygon style="fill:#57565C;" points="313.719,319.705 313.719,328.771 69.741,187.744 69.741,178.679 	"/>
	<polygon style="fill:#666666;" points="313.719,319.705 313.719,384.395 69.741,243.367 69.741,178.679 	"/>
</g>
<polygon style="fill:#D8D8DA;" points="453.973,144.692 453.973,217.721 411.774,241.889 248.154,147.394 248.154,25.696 "/>
<polygon style="fill:#E0E0E2;" points="459.711,141.733 453.973,144.692 248.154,25.696 253.891,22.737 "/>
<polygon style="fill:#474747;" points="477.13,224.742 313.719,319.705 313.719,454.909 348.589,476.158 512,381.194 512,245.991 
	"/>
<g style="enable-background:new    ;">
	<polygon style="fill:#666666;" points="313.719,319.705 477.13,224.742 512,245.991 348.589,340.955 	"/>
	<polygon style="fill:#4D4D4D;" points="348.589,340.955 348.589,476.158 313.719,454.909 313.719,319.705 	"/>
</g>
<polygon style="fill:#898890;" points="362.347,268.912 395.261,249.784 320.13,206.283 287.215,225.41 "/>
<polygon style="fill:#474747;" points="248.154,98.725 248.154,147.394 205.956,123.061 "/>
<polygon style="fill:#C6C5CB;" points="459.711,141.733 459.711,214.761 453.973,217.721 453.973,144.692 "/>
<g style="enable-background:new    ;">
	<path style="fill:#474747;" d="M228.921,166.671l-14.763-8.523c-2.284-1.319-5.98-1.316-8.249,0.003l-4.978,2.892
		c-2.27,1.319-2.257,3.457,0.027,4.775l14.763,8.523c2.284,1.319,5.975,1.319,8.244,0l4.978-2.892
		C231.213,170.13,231.206,167.989,228.921,166.671"/>
	<path style="fill:#474747;" d="M258.259,183.608l-14.758-8.521c-2.289-1.322-5.984-1.319-8.254,0l-4.978,2.892
		c-2.27,1.319-2.257,3.457,0.031,4.778l14.758,8.521c2.284,1.319,5.975,1.319,8.244,0l4.978-2.892
		C260.549,187.068,260.542,184.927,258.259,183.608"/>
	<path style="fill:#474747;" d="M287.596,200.546l-14.758-8.521c-2.289-1.322-5.984-1.319-8.254,0l-4.978,2.892
		c-2.27,1.319-2.257,3.457,0.031,4.778l14.758,8.521c2.284,1.319,5.975,1.319,8.244,0l4.978-2.892
		C289.887,204.006,289.88,201.865,287.596,200.546"/>
	<path style="fill:#474747;" d="M211.039,177.063l-14.763-8.523c-2.284-1.319-5.975-1.319-8.248,0.003l-4.973,2.89
		c-2.274,1.322-2.262,3.46,0.022,4.778l14.763,8.523c2.284,1.319,5.975,1.319,8.248-0.003l4.973-2.89
		C213.335,180.52,213.322,178.382,211.039,177.063"/>
	<path style="fill:#474747;" d="M240.376,194.001l-14.758-8.521c-2.289-1.322-5.98-1.322-8.254,0l-4.973,2.89
		c-2.274,1.322-2.262,3.46,0.027,4.78l14.758,8.521c2.284,1.319,5.975,1.319,8.248-0.003l4.973-2.89
		C242.671,197.458,242.66,195.32,240.376,194.001"/>
	<path style="fill:#474747;" d="M269.713,210.939l-14.758-8.521c-2.289-1.322-5.98-1.322-8.254,0l-4.973,2.89
		c-2.274,1.322-2.262,3.46,0.027,4.78l14.758,8.521c2.284,1.319,5.975,1.319,8.248-0.003l4.973-2.89
		C272.009,214.395,271.996,212.257,269.713,210.939"/>
	<path style="fill:#474747;" d="M193.156,187.455l-14.763-8.523c-2.284-1.319-5.975-1.319-8.248,0.003l-4.973,2.89
		c-2.274,1.322-2.262,3.46,0.022,4.778l14.763,8.523c2.284,1.319,5.975,1.319,8.248-0.003l4.973-2.89
		C195.452,190.911,195.44,188.773,193.156,187.455"/>
	<path style="fill:#474747;" d="M222.493,204.392l-14.758-8.521c-2.289-1.322-5.98-1.322-8.254,0l-4.973,2.89
		c-2.274,1.322-2.262,3.46,0.027,4.78l14.758,8.521c2.284,1.319,5.975,1.319,8.248-0.003l4.973-2.89
		C224.789,207.85,224.777,205.711,222.493,204.392"/>
	<path style="fill:#474747;" d="M251.83,221.33l-14.758-8.521c-2.289-1.322-5.98-1.322-8.254,0l-4.973,2.89
		c-2.274,1.322-2.262,3.46,0.027,4.78l14.758,8.521c2.284,1.319,5.975,1.319,8.248-0.003l4.973-2.89
		C254.126,224.787,254.114,222.649,251.83,221.33"/>
	<path style="fill:#474747;" d="M175.277,197.845l-14.763-8.523c-2.284-1.319-5.98-1.316-8.248,0.003l-4.978,2.892
		c-2.27,1.319-2.262,3.46,0.022,4.778l14.763,8.523c2.284,1.319,5.98,1.316,8.248-0.003l4.978-2.892
		C177.569,201.304,177.562,199.164,175.277,197.845"/>
	<path style="fill:#474747;" d="M204.615,214.783l-14.758-8.521c-2.289-1.322-5.984-1.319-8.254,0l-4.978,2.892
		c-2.27,1.319-2.262,3.46,0.027,4.78l14.758,8.521c2.284,1.319,5.98,1.316,8.248-0.003l4.978-2.892
		C206.907,218.242,206.899,216.102,204.615,214.783"/>
	<path style="fill:#474747;" d="M233.953,231.721l-14.758-8.521c-2.289-1.322-5.984-1.319-8.254,0l-4.978,2.892
		c-2.27,1.319-2.262,3.46,0.027,4.78l14.758,8.521c2.284,1.319,5.98,1.316,8.248-0.003l4.978-2.892
		C236.243,235.179,236.236,233.039,233.953,231.721"/>
</g>
<g style="enable-background:new    ;">
	<path style="fill:#BE3E50;" d="M296.015,240.84c-6.021-3.476-15.749-3.476-21.723-0.004c-5.982,3.476-5.95,9.11,0.071,12.587
		c6.021,3.476,15.748,3.476,21.73,0C302.068,249.951,302.036,244.316,296.015,240.84"/>
	<path style="fill:#ACDD58;" d="M334.996,265.954c-6.021-3.476-15.749-3.476-21.723-0.004c-5.982,3.476-5.95,9.11,0.071,12.587
		c6.013,3.472,15.741,3.472,21.723-0.004C341.042,275.06,341.011,269.426,334.996,265.954"/>
</g>
<polygon style="fill:#1D1D1F;" points="155.947,32.66 29.636,117.931 29.538,141.055 70.648,164.79 196.958,91.387 197.057,56.395 
	"/>
<polygon style="fill:#474747;" points="197.057,56.395 196.958,91.387 70.648,164.79 70.747,141.666 "/>
<polygon style="fill:#4D4D4D;" points="70.747,141.666 70.648,164.79 29.538,141.055 29.636,117.931 "/>
<polygon style="fill:#666666;" points="197.057,56.395 70.747,141.666 29.636,117.931 155.947,32.66 "/>
<g>
</g>
<g>
</g>
<g>
</g>
<g>
</g>
<g>
</g>
<g>
</g>
<g>
</g>
<g>
</g>
<g>
</g>
<g>
</g>
<g>
</g>
<g>
</g>
<g>
</g>
<g>
</g>
<g>
</g>
</svg>
