<?xml version="1.0"?>
<svg xmlns="http://www.w3.org/2000/svg" xmlns:xlink="http://www.w3.org/1999/xlink" xmlns:svgjs="http://svgjs.com/svgjs" version="1.1" width="512" height="512" x="0" y="0" viewBox="0 0 512 512" style="enable-background:new 0 0 512 512" xml:space="preserve" class=""><g><path xmlns="http://www.w3.org/2000/svg" d="m256 0c-140.960938 0-256 115.050781-256 256 0 140.960938 115.050781 256 256 256 140.960938 0 256-115.050781 256-256 0-140.960938-115.050781-256-256-256zm0 482c-124.617188 0-226-101.382812-226-226s101.382812-226 226-226 226 101.382812 226 226-101.382812 226-226 226zm0 0" fill="#3e56d5" data-original="#000000" style="" class=""/><path xmlns="http://www.w3.org/2000/svg" d="m256 61c-107.523438 0-195 87.476562-195 195s87.476562 195 195 195 195-87.476562 195-195-87.476562-195-195-195zm0 360c-90.980469 0-165-74.019531-165-165s74.019531-165 165-165 165 74.019531 165 165-74.019531 165-165 165zm0 0" fill="#3e56d5" data-original="#000000" style="" class=""/><path xmlns="http://www.w3.org/2000/svg" d="m331 226c-11.789062 0-37.179688 0-45 0v150h30v-60h15c24.8125 0 45-20.1875 45-45s-20.1875-45-45-45zm0 60h-15v-30h15c8.269531 0 15 6.730469 15 15s-6.730469 15-15 15zm0 0" fill="#3e56d5" data-original="#000000" style="" class=""/><path xmlns="http://www.w3.org/2000/svg" d="m271 196c0-33.085938-26.914062-60-60-60h-45v210h30v-90h15c16.542969 0 30 13.457031 30 30v60h30v-60c0-17.90625-7.894531-33.996094-20.378906-45 12.484375-11.003906 20.378906-27.09375 20.378906-45zm-75 30v-60h15c16.542969 0 30 13.457031 30 30s-13.457031 30-30 30zm0 0" fill="#3e56d5" data-original="#000000" style="" class=""/></g></svg>
